<?xml version="1.0" standalone="no"?>
<!DOCTYPE svg PUBLIC "-//W3C//DTD SVG 20010904//EN"
 "http://www.w3.org/TR/2001/REC-SVG-20010904/DTD/svg10.dtd">
<svg version="1.0" xmlns="http://www.w3.org/2000/svg"
 width="227.000000pt" height="227.000000pt" viewBox="0 0 227.000000 227.000000"
 preserveAspectRatio="xMidYMid meet">

<g transform="translate(0.000000,227.000000) scale(0.100000,-0.100000)"
fill="#000000" stroke="none">
<path d="M765 2120 c-398 -299 -674 -548 -729 -657 -70 -139 -2 -225 201 -254
93 -13 354 -4 481 16 48 8 94 15 103 15 40 0 32 -532 -11 -736 -23 -111 -60
-193 -101 -229 -58 -48 -143 -24 -197 55 -22 33 -24 42 -19 135 4 75 13 123
36 194 17 52 31 98 31 103 0 12 -70 10 -132 -3 -65 -14 -139 -51 -195 -96 -48
-40 -51 -46 -62 -145 -21 -191 41 -339 180 -428 116 -75 310 -105 427 -66 80
27 162 108 212 210 81 166 118 380 126 741 7 313 7 313 52 332 97 40 145 24
156 -53 17 -125 -64 -660 -160 -1049 -19 -77 -34 -143 -34 -147 0 -13 150 -32
270 -32 93 -1 133 3 155 14 35 18 35 17 14 200 -9 85 -14 241 -13 485 0 490
17 590 110 642 68 39 117 27 133 -35 21 -81 34 -291 34 -557 0 -350 -16 -498
-78 -711 -9 -30 10 -34 211 -41 182 -6 258 3 288 36 15 16 14 23 -14 84 -69
152 -138 438 -161 661 -16 159 -7 423 21 608 38 251 22 270 -201 232 -52 -9
-133 -26 -181 -39 -85 -22 -88 -22 -104 -4 -13 14 -31 19 -72 19 -66 0 -271
-40 -379 -75 -43 -13 -80 -21 -84 -17 -3 4 -30 162 -58 352 -29 190 -55 353
-59 363 -7 16 -34 -1 -197 -123z m37 -461 c9 -96 15 -175 14 -176 -1 -1 -40
-13 -86 -26 -155 -45 -324 -56 -382 -25 -46 24 -6 70 217 247 72 57 146 116
165 132 19 15 40 27 45 25 6 -1 17 -81 27 -177z"/>
</g>
</svg>
